Coordinates
version=1
nRows=10
nColumns=23
inDegrees=yes

Units are S.I. units (second, meters, Newtons, ...)
If the header above contains a line with 'inDegrees', this indicates whether rotational values are in degrees (yes) or radians (no).

endheader
time	pelvis_tilt	pelvis_list	pelvis_rotation	pelvis_tx	pelvis_ty	pelvis_tz	hip_flexion_r	hip_adduction_r	hip_rotation_r	knee_angle_r	knee_angle_r_beta	ankle_angle_r	subtalar_angle_r	mtp_angle_r	hip_flexion_l	hip_adduction_l	hip_rotation_l	knee_angle_l	knee_angle_l_beta	ankle_angle_l	subtalar_angle_l	mtp_angle_l
      7.50000000	    -11.16812725	     -4.56856558	      4.97347724	      2.36410077	      0.93373027	      1.02290455	     55.97116086	      0.20679269	     -6.39483555	     87.69123709	      1.53050081	     -4.72938852	    -16.88449569	      0.00000000	    -17.26878174	     -4.60577807	     -9.55446734	     12.68007120	      0.22130899	    -11.12452982	      7.53286078	      0.00000000
      7.50666667	    -11.87811000	     -4.50237639	      4.74564776	      2.36565634	      0.93659826	      1.02319738	     56.71445321	      0.34094610	     -6.30161447	     82.70999603	      1.44356176	     -4.66007700	    -17.49153497	      0.00000000	    -17.84272610	     -4.82058866	    -10.33675908	     13.67320408	      0.23864243	    -11.89821680	      7.24642024	      0.00000000
      7.51333333	    -12.56258659	     -4.28475852	      4.47797596	      2.36696097	      0.93900611	      1.02356846	     57.23614889	      0.39307652	     -6.11206908	     77.53780224	      1.35328994	     -4.56903869	    -18.01748939	      0.00000000	    -18.16205741	     -4.94140641	    -11.22607580	     15.39774787	      0.26874140	    -12.19808525	      6.93086660	      0.00000000
      7.52000000	    -13.10206264	     -3.91405284	      4.24750748	      2.36799027	      0.94107653	      1.02390363	     57.41269918	      0.25028037	     -5.95426576	     72.22207619	      1.26051302	     -4.25859164	    -17.95543191	      0.00000000	    -18.45588961	     -4.89728019	    -11.67321157	     17.57462101	      0.30673500	    -12.25846571	      5.92453353	      0.00000000
      7.52666667	    -13.52873037	     -3.43056358	      4.04180384	      2.36867391	      0.94274856	      1.02433835	     57.27533815	      0.05284819	     -5.76209806	     66.68910119	      1.16394439	     -4.16889651	    -18.10254974	      0.00000000	    -18.60968887	     -4.82517054	    -12.09492879	     20.36970985	      0.35551850	    -12.00087291	      5.14261331	      0.00000000
      7.53333333	    -13.78661349	     -2.87865549	      3.82690079	      2.36921641	      0.94409842	      1.02478388	     56.76185075	     -0.20899071	     -5.65933337	     61.01432797	      1.06490091	     -3.87877531	    -17.52014718	      0.00000000	    -18.82161560	     -4.64359392	    -12.15133004	     23.46141186	      0.40947888	    -11.70669662	      3.70836811	      0.00000000
      7.54000000	    -13.90513128	     -2.23334790	      3.64313276	      2.36952490	      0.94506284	      1.02522623	     55.92834530	     -0.54789427	     -5.60764318	     55.22016727	      0.96377373	     -3.68174801	    -16.60271633	      0.00000000	    -19.02047262	     -4.35349396	    -11.91559864	     26.88590499	      0.46924756	    -11.33588416	      2.10752495	      0.00000000
      7.54666667	    -13.85987006	     -1.60318173	      3.51625355	      2.36971401	      0.94571525	      1.02559368	     54.73329846	     -0.92595531	     -5.75920269	     49.33062336	      0.86098180	     -3.53668468	    -15.24933393	      0.00000000	    -19.23351196	     -4.05492445	    -11.38108307	     30.60682717	      0.53418991	    -11.00921822	      0.16560204	      0.00000000
      7.55333333	    -13.67598090	     -0.89482812	      3.34896532	      2.36976601	      0.94601342	      1.02599934	     53.26393159	     -1.23858983	     -5.80859716	     43.46187961	      0.75855290	     -3.48232121	    -13.43115494	      0.00000000	    -19.49501906	     -3.57615870	    -10.60827244	     34.47625768	      0.60172421	    -10.62015984	     -1.90919802	      0.00000000
      7.56000000	    -13.30233674	     -0.25597130	      3.27883248	      2.36981423	      0.94603706	      1.02621595	     51.45158760	     -1.56360751	     -6.07687051	     37.68143640	      0.65766513	     -3.52027855	    -11.27180676	      0.00000000	    -19.81270694	     -3.12243003	     -9.58583926	     38.54769959	      0.67278428	    -10.42470960	     -4.18152991	      0.00000000
